<?xml version="1.0" encoding="UTF-8" standalone="no"?>
<!DOCTYPE svg PUBLIC "-//W3C//DTD SVG 1.1//EN" "http://www.w3.org/Graphics/SVG/1.1/DTD/svg11.dtd">
<svg width="100%" height="100%" viewBox="0 0 1885 1893" version="1.1" xmlns="http://www.w3.org/2000/svg" xmlns:xlink="http://www.w3.org/1999/xlink" xml:space="preserve" xmlns:serif="http://www.serif.com/" style="fill-rule:evenodd;clip-rule:evenodd;stroke-linejoin:round;stroke-miterlimit:2;">
    <g transform="matrix(1,0,0,1,-299.107,-289.589)">
        <g transform="matrix(1.58868,0,0,1.57571,431.647,-982.544)">
            <g transform="matrix(1.04994,0,0,1.05858,-793.905,-411.098)">
                <path d="M1011.51,1330.22L1013.21,1151.01L1117.41,1152L1115.72,1330.22L1011.51,1330.22ZM1124.14,1444.64C1196.19,1374.22 1298.38,1330.23 1411.64,1330.23C1520.22,1330.23 1618.62,1370.65 1690.05,1436.03L1690.19,1600.93C1681.95,1580.03 1671.01,1560.31 1657.76,1542.14L1657.12,1542.18C1604.6,1464.75 1511.82,1417.34 1411.33,1420.09C1396.38,1420.49 1381.54,1422.01 1366.94,1424.6C1365.77,1424.65 1364.6,1424.7 1363.43,1424.76C1307.3,1433.24 1256.45,1456.26 1215.61,1489.49C1210.75,1499 1208.32,1509.15 1208.32,1519.95C1208.32,1542.89 1218.64,1561.77 1239.28,1576.58C1259.55,1591.39 1312.51,1606.57 1398.14,1622.11C1483.77,1637.64 1542.52,1651.22 1574.38,1662.84C1620.73,1679.97 1654.95,1701.68 1677.04,1727.97C1686.05,1738.68 1693.22,1750.07 1698.55,1762.12C1698.83,1761.13 1699.1,1760.14 1699.36,1759.15L1699.36,1658.34L1699.69,1658.34L1699.42,1342.8L1805.66,1342.8L1805.66,1668.06C1806.32,1676.61 1806.65,1685.24 1806.65,1693.95C1806.65,1702.65 1806.32,1711.28 1805.66,1719.83L1805.66,2051.46L1699.36,2051.46L1699.36,1943.05C1627.3,2013.6 1525.02,2057.67 1411.64,2057.67C1290.75,2057.67 1182.46,2007.55 1109.98,1928.65L1109.98,1928.7C1047.56,1865.76 1011.58,1785.79 1007.99,1702.28L1011.42,1339.67L1114.69,1339.67L1114.69,1438.83L1114.55,1454.36C1114.6,1454.31 1114.64,1454.26 1114.69,1454.21L1114.69,1698.91L1115.45,1698.91C1116.28,1741.83 1127.9,1782.34 1147.91,1818.25C1161.53,1836.76 1183.34,1857.09 1210.34,1875.03C1220.37,1881.7 1230.44,1887.59 1240.27,1892.62C1253.89,1901.22 1270.03,1908.78 1288.7,1915.29C1324.91,1927.92 1365.64,1934.24 1410.9,1934.24C1451.1,1934.24 1486.58,1929.45 1517.36,1919.86C1548.13,1910.28 1571.04,1897.14 1586.06,1880.44C1601.09,1863.74 1608.6,1845.51 1608.6,1825.77C1608.6,1805.73 1601.36,1788.23 1586.88,1773.27C1572.39,1758.31 1548.5,1745.75 1515.18,1735.59C1493.82,1728.91 1446.57,1718.53 1373.43,1704.44C1300.29,1690.36 1249.05,1677.07 1219.72,1664.58C1181.7,1648.61 1153.37,1628.79 1134.73,1605.12C1134.33,1604.62 1133.94,1604.12 1133.56,1603.62L1124.14,1588.95L1124.14,1444.64ZM1102.57,2041.03C1098.27,2075.45 1092.16,2104.98 1084.25,2129.6C1067.83,2180.72 1042.22,2219.58 1007.41,2246.16C972.601,2272.74 931.922,2285.81 885.372,2285.37C816.263,2284.72 763.624,2256.04 727.454,2199.34C691.284,2142.64 674.442,2058.7 676.926,1947.53L771.094,1930.14C772.794,2015.46 783.521,2073.95 803.275,2105.61C823.03,2137.28 850.632,2153.28 886.081,2153.62C912.221,2153.87 934.86,2145.57 953.999,2128.75C973.138,2111.92 986.427,2088.94 993.865,2059.82C995.299,2054.2 996.606,2047.94 997.786,2041.03L1102.57,2041.03ZM999.262,2031.58C1003.27,2003.55 1005.49,1966.41 1005.93,1920.17L1007.36,1768.5C1023.34,1832.79 1058.39,1892.72 1109.66,1941.81C1108.73,1974.61 1106.74,2004.53 1103.69,2031.58L999.262,2031.58Z" style="fill:rgb(56,56,56);"/>
            </g>
        </g>
    </g>
</svg>
